Coordinates
version=1
nRows=13
nColumns=63
inDegrees=yes

Units are S.I. units (second, meters, Newtons, ...)
If the header above contains a line with 'inDegrees', this indicates whether rotational values are in degrees (yes) or radians (no).

endheader
time	pelvis_tilt	pelvis_list	pelvis_rotation	pelvis_tx	pelvis_ty	pelvis_tz	hip_flexion_r	hip_adduction_r	hip_rotation_r	knee_angle_r	knee_angle_r_beta	ankle_angle_r	subtalar_angle_r	mtp_angle_r	hip_flexion_l	hip_adduction_l	hip_rotation_l	knee_angle_l	knee_angle_l_beta	ankle_angle_l	subtalar_angle_l	mtp_angle_l	L5_S1_Flex_Ext	L5_S1_Lat_Bending	L5_S1_axial_rotation	L4_L5_Flex_Ext	L4_L5_Lat_Bending	L4_L5_axial_rotation	L3_L4_Flex_Ext	L3_L4_Lat_Bending	L3_L4_axial_rotation	L2_L3_Flex_Ext	L2_L3_Lat_Bending	L2_L3_axial_rotation	L1_L2_Flex_Ext	L1_L2_Lat_Bending	L1_L2_axial_rotation	L1_T12_Flex_Ext	L1_T12_Lat_Bending	L1_T12_axial_rotation	Abs_r3	Abs_r2	Abs_r1	Abs_t1	Abs_t2	neck_flexion	neck_bending	neck_rotation	arm_flex_r	arm_add_r	arm_rot_r	elbow_flex_r	pro_sup_r	wrist_flex_r	wrist_dev_r	arm_flex_l	arm_add_l	arm_rot_l	elbow_flex_l	pro_sup_l	wrist_flex_l	wrist_dev_l
1.491525	-2.975423	-11.000218	82.996370	0.211613	0.894585	0.542100	24.478426	0.697525	13.231436	28.825157	0.503094	35.705055	-10.961491	0.000000	24.579228	1.562145	0.271239	27.374487	0.477775	37.905838	-11.712473	0.000000	-0.071939	-0.451634	1.251846	-0.133598	-0.600674	1.330086	-0.118189	-1.098104	1.330086	-0.082219	-1.098104	1.095365	-0.066803	-0.920973	1.017125	-0.041106	-0.699582	0.938884	-0.513855	-5.108978	6.962390	0.000000	0.000000	19.686666	-1.987822	0.332950	-7.507511	-12.305653	5.021339	125.105924	76.353190	-7.136731	19.939314	-15.594361	-12.468595	-6.128521	114.226880	87.240826	-9.857312	10.177610
1.508475	-2.982136	-11.168095	82.825538	0.211832	0.894270	0.542475	24.782073	0.812085	13.390771	28.900318	0.504406	35.675020	-10.961785	0.000000	24.720563	1.491673	0.298999	27.247911	0.475566	37.930269	-11.805131	0.000000	-0.075265	-0.469849	1.192609	-0.139775	-0.624900	1.267147	-0.123653	-1.142391	1.267147	-0.086020	-1.142391	1.043533	-0.069891	-0.958117	0.968995	-0.043006	-0.727797	0.894457	-0.537610	-5.315029	6.632934	0.000000	0.000000	20.162925	-1.264046	1.344329	-7.798130	-12.621321	5.863513	125.277846	77.009013	-6.680704	19.849398	-14.817361	-12.273831	-5.282660	115.058872	86.534495	-8.657930	10.999908
1.525424	-2.827755	-11.385370	82.795473	0.211230	0.893973	0.542958	25.096401	0.975268	13.273062	28.927999	0.504889	35.570819	-10.882310	0.000000	24.884859	1.351577	0.462073	27.088384	0.472781	37.909299	-11.926469	0.000000	-0.071577	-0.459455	1.098601	-0.132925	-0.611075	1.167263	-0.117594	-1.117118	1.167263	-0.081805	-1.117118	0.961276	-0.066466	-0.936920	0.892613	-0.040899	-0.711695	0.823951	-0.511266	-5.197442	6.110087	0.000000	0.000000	20.686225	-0.673707	2.713265	-8.479729	-13.335011	6.893592	124.067778	78.137603	-6.516442	18.894154	-13.557698	-11.899712	-3.688817	116.882189	85.548159	-6.926274	12.299996
1.542373	-2.519422	-11.624480	82.937927	0.209829	0.893725	0.543536	25.367505	1.164585	12.849615	28.880014	0.504051	35.389452	-10.729746	0.000000	25.062716	1.162618	0.802282	26.923242	0.469899	37.841667	-12.085672	0.000000	-0.064410	-0.419010	0.977257	-0.119617	-0.557284	1.038336	-0.105820	-1.018782	1.038336	-0.073615	-1.018782	0.855100	-0.059812	-0.854446	0.794022	-0.036804	-0.649047	0.732943	-0.460077	-4.739929	5.435212	0.000000	0.000000	21.214682	-0.258434	4.408628	-9.499748	-14.366392	7.939151	121.805910	79.588596	-6.471411	17.342661	-12.031285	-11.397217	-1.455564	119.594148	84.608091	-4.999152	14.058186
1.559322	-2.099048	-11.880318	83.236482	0.207815	0.893490	0.544227	25.598044	1.353990	12.165843	28.775586	0.502229	35.163739	-10.514449	0.000000	25.274282	0.952401	1.302728	26.792870	0.467624	37.728977	-12.276924	0.000000	-0.054015	-0.353786	0.841624	-0.100311	-0.470535	0.894226	-0.088741	-0.860195	0.894226	-0.061733	-0.860195	0.736421	-0.050158	-0.721440	0.683820	-0.030864	-0.548015	0.631218	-0.385822	-4.002098	4.680862	0.000000	0.000000	21.734265	-0.085470	6.261217	-10.740519	-15.608180	8.851143	119.006807	81.092476	-6.500788	15.601318	-10.457422	-10.864184	1.218686	122.915921	83.799549	-3.139373	16.123432
1.576271	-1.640139	-12.137311	83.644268	0.205475	0.893245	0.545050	25.789782	1.506664	11.319773	28.635053	0.499776	34.933534	-10.260591	0.000000	25.520004	0.764170	1.907367	26.719095	0.466336	37.564689	-12.496740	0.000000	-0.041542	-0.275258	0.705898	-0.077148	-0.366092	0.750016	-0.068250	-0.669261	0.750016	-0.047479	-0.669261	0.617661	-0.038576	-0.561305	0.573542	-0.023737	-0.426374	0.529423	-0.296731	-3.113768	3.925992	0.000000	0.000000	22.212837	-0.131156	8.094321	-12.008902	-16.903499	9.522292	116.196304	82.432936	-6.612629	13.986030	-9.040530	-10.415530	4.025525	126.422454	83.154246	-1.517356	18.306443
1.593220	-1.215512	-12.372416	84.112336	0.203105	0.892981	0.546025	25.948072	1.591924	10.429059	28.495018	0.497332	34.745628	-10.004274	0.000000	25.786564	0.637241	2.552060	26.710495	0.466186	37.350757	-12.720688	0.000000	-0.028942	-0.195395	0.580161	-0.053748	-0.259875	0.616422	-0.047548	-0.475083	0.616422	-0.033077	-0.475083	0.507641	-0.026875	-0.398449	0.471381	-0.016537	-0.302666	0.435121	-0.206728	-2.210344	3.226684	0.000000	0.000000	22.608381	-0.333518	9.771623	-13.044504	-18.061520	9.904916	113.812906	83.473055	-6.783075	12.722731	-7.937843	-10.138197	6.610586	129.597262	82.682577	-0.290826	20.356207
1.610169	-0.872468	-12.572206	84.597419	0.200916	0.892707	0.547144	26.078388	1.589697	9.561735	28.372394	0.495192	34.635804	-9.730212	0.000000	26.062546	0.596701	3.206002	26.764507	0.467129	37.087921	-12.974336	0.000000	-0.015982	-0.123699	0.480537	-0.029681	-0.164519	0.510571	-0.026257	-0.300761	0.510571	-0.018266	-0.300761	0.420470	-0.014841	-0.252247	0.390436	-0.009132	-0.191610	0.360403	-0.114161	-1.399306	2.672603	0.000000	0.000000	22.870074	-0.644278	11.040834	-13.606264	-18.932770	9.972348	112.184180	84.016880	-7.067494	11.905531	-7.185659	-10.051439	8.724279	131.929180	82.404621	0.431945	22.070260
1.627119	-0.624255	-12.710691	85.053069	0.199059	0.892500	0.548341	26.156600	1.521960	8.829876	28.263059	0.493283	34.593368	-9.506547	0.000000	26.308390	0.627298	3.801700	26.862433	0.468838	36.801217	-13.210029	0.000000	-0.004620	-0.062997	0.413995	-0.008581	-0.083785	0.439870	-0.007591	-0.153170	0.439870	-0.005281	-0.153170	0.362246	-0.004291	-0.128463	0.336371	-0.002640	-0.097582	0.310496	-0.033003	-0.712630	2.302518	0.000000	0.000000	22.942011	-1.017252	11.919444	-13.474382	-19.404300	9.748776	111.499855	84.007452	-7.415723	11.607271	-6.767708	-10.132478	10.210261	133.015251	82.317740	0.502704	23.088825
1.644068	-0.476930	-12.785129	85.448836	0.197621	0.892412	0.549517	26.179422	1.401782	8.282494	28.157967	0.491449	34.609981	-9.347141	0.000000	26.502985	0.715975	4.296093	26.971948	0.470749	36.514161	-13.400843	0.000000	0.007524	-0.016132	0.382824	0.013972	-0.021455	0.406751	0.012361	-0.039223	0.406751	0.008599	-0.039223	0.334971	0.006987	-0.032896	0.311045	0.004299	-0.024988	0.287118	0.053741	-0.182487	2.129154	0.000000	0.000000	22.771731	-1.385612	12.388196	-12.596970	-19.462426	9.328026	111.843654	83.245667	-7.881424	11.751513	-6.652598	-10.344607	10.983757	132.710602	82.437088	-0.120181	23.195662
1.661017	-0.433236	-12.795066	85.762597	0.196655	0.892472	0.550594	26.152802	1.241338	7.948692	28.064205	0.489813	34.669755	-9.273728	0.000000	26.630978	0.847709	4.636560	27.066216	0.472395	36.241012	-13.509215	0.000000	0.021630	0.014339	0.381276	0.040169	0.019071	0.405106	0.035536	0.034864	0.405106	0.024721	0.034864	0.333617	0.020086	0.029240	0.309787	0.012359	0.022211	0.285957	0.154501	0.162207	2.120545	0.000000	0.000000	22.373574	-1.698264	12.463202	-11.096491	-19.137707	8.815061	113.216101	81.834533	-8.382701	12.321752	-6.844160	-10.641482	10.963467	131.216898	82.831487	-1.391188	22.520355
1.677966	-0.453479	-12.743532	86.005940	0.196044	0.892694	0.551522	26.072162	1.065680	7.775541	27.974809	0.488253	34.751843	-9.262738	0.000000	26.678625	0.992451	4.841754	27.118866	0.473314	35.995236	-13.538019	0.000000	0.037803	0.032989	0.407162	0.070203	0.043875	0.432609	0.062106	0.080210	0.432609	0.043204	0.080210	0.356266	0.035103	0.067271	0.330819	0.021600	0.051100	0.305371	0.270020	0.373179	2.264511	0.000000	0.000000	21.768093	-1.988887	12.159271	-9.267147	-18.530233	8.236478	115.545106	80.114180	-8.798057	13.339189	-7.297759	-10.944111	10.193455	128.944017	83.509877	-3.150753	21.387917
1.694915	-0.549494	-12.620479	86.144607	0.195847	0.893049	0.552296	25.943344	0.888810	7.811989	27.920383	0.487303	34.836273	-9.352037	0.000000	26.620215	1.122948	4.764813	27.107975	0.473123	35.819491	-13.331580	0.000000	0.054377	0.035456	0.450339	0.100984	0.047157	0.478485	0.089336	0.086208	0.478485	0.062148	0.086208	0.394047	0.050495	0.072303	0.365901	0.031071	0.054922	0.337754	0.388412	0.401089	2.504652	0.000000	0.000000	21.020943	-2.193046	11.531033	-7.386743	-17.715961	7.709290	118.515013	78.174653	-8.988540	14.725745	-7.958974	-11.222417	8.783736	126.408753	84.053828	-5.239843	19.930997
